<svg xmlns="http://www.w3.org/2000/svg" width="65.264" height="65.337" viewBox="0 0 65.264 65.337">
  <path id="_016-stock_exchange_app" data-name="016-stock exchange app" d="M49.6,21.195a2.552,2.552,0,0,1-3.222-1.626,21.017,21.017,0,0,0-20-14.463C4.584,5.336-2.69,34.135,16.352,44.683a2.552,2.552,0,1,1-2.434,4.487C-9.743,36.055-.688.286,26.375,0a26.253,26.253,0,0,1,24.851,17.97A2.552,2.552,0,0,1,49.6,21.195Zm-15.952,8.8a6.2,6.2,0,0,0-2.119-4.617,7.167,7.167,0,0,0-4.771-1.764c-1.237,0-2.169-.549-2.169-1.276a1.278,1.278,0,0,1,1.276-1.276,10.059,10.059,0,0,1,3.924.847,2.552,2.552,0,0,0,1.85-4.757,20.516,20.516,0,0,0-2.2-.726v-.6a2.552,2.552,0,0,0-5.1,0v.313c-7.537,2.281-5.953,12.6,2.425,12.575.968,0,1.787.584,1.787,1.276a1.327,1.327,0,0,1-1.34,1.276,13.544,13.544,0,0,1-4.353-.968,2.552,2.552,0,0,0-1.885,4.743,19.922,19.922,0,0,0,3.367,1v.332a2.552,2.552,0,0,0,5.1,0v-.4A6.4,6.4,0,0,0,33.649,29.99ZM63,48.238a2.552,2.552,0,0,0-2.552,2.552v12a2.552,2.552,0,0,0,5.1,0v-12A2.552,2.552,0,0,0,63,48.238ZM52.79,51.173a2.552,2.552,0,0,0-2.552,2.552v9.06a2.552,2.552,0,0,0,5.1,0v-9.06A2.552,2.552,0,0,0,52.79,51.173ZM42.581,56.787a2.552,2.552,0,0,0-2.552,2.552v3.445a2.552,2.552,0,0,0,5.1,0V59.339A2.552,2.552,0,0,0,42.581,56.787ZM32.373,54.618a2.552,2.552,0,0,0-2.552,2.552v5.615a2.552,2.552,0,0,0,5.1,0V57.17A2.552,2.552,0,0,0,32.373,54.618ZM13.179,65.337a2.559,2.559,0,0,1-1.8-4.363l14.8-14.7c.03-.03.061-.059.092-.087a8.911,8.911,0,0,1,11.474-.4l.215.157.076.058a3.836,3.836,0,0,0,5.22-.442l.037-.04L52.333,35.9a2.552,2.552,0,0,1,3.721,3.494L47.029,49a8.951,8.951,0,0,1-12.12,1.041l-.215-.157-.076-.058a3.818,3.818,0,0,0-4.893.12L14.978,64.6A2.545,2.545,0,0,1,13.179,65.337ZM65.551,40.581V33.69a7.665,7.665,0,0,0-7.656-7.656H51a2.552,2.552,0,0,0,0,5.1h6.891a2.555,2.555,0,0,1,2.552,2.552v6.891a2.552,2.552,0,0,0,5.1,0Z" transform="translate(-0.287 0)"/>
</svg>
