<svg xmlns="http://www.w3.org/2000/svg" width="65.335" height="65.326" viewBox="0 0 65.335 65.326">
  <path id="_011-house" data-name="011-house" d="M50.022,65.363H15.313A15.33,15.33,0,0,1,0,50.05V28.577A15.4,15.4,0,0,1,6.026,16.4L23.381,3.165a15.35,15.35,0,0,1,18.573,0l5.516,4.2V4.111a2.552,2.552,0,0,1,5.1,0v8.411a2.552,2.552,0,0,1-4.1,2.03L38.859,7.224a10.234,10.234,0,0,0-12.383,0L9.122,20.46A10.267,10.267,0,0,0,5.1,28.577V50.05A10.22,10.22,0,0,0,15.313,60.259H50.022A10.22,10.22,0,0,0,60.231,50.05V28.577a10.274,10.274,0,0,0-3.972-8.145,2.552,2.552,0,1,1,3.1-4.058,15.407,15.407,0,0,1,5.981,12.2V50.05A15.33,15.33,0,0,1,50.022,65.363ZM27.563,29.505a3.19,3.19,0,1,0,3.19,3.19A3.19,3.19,0,0,0,27.563,29.505Zm13.4,3.19a3.19,3.19,0,0,1-6.38,0A3.19,3.19,0,0,1,40.962,32.7ZM30.753,42.9a3.19,3.19,0,0,1-6.38,0A3.19,3.19,0,0,1,30.753,42.9Zm10.209,0a3.19,3.19,0,0,1-6.38,0A3.19,3.19,0,0,1,40.962,42.9Z" transform="translate(0 -0.037)"/>
</svg>
