<svg xmlns="http://www.w3.org/2000/svg" width="37.399" height="30.305" viewBox="0 0 37.399 30.305">
  <path id="Icon_awesome-user-cog" data-name="Icon awesome-user-cog" d="M33.751,20.637a6.485,6.485,0,0,0,0-2.355l1.426-.824a.4.4,0,0,0,.182-.47,8.3,8.3,0,0,0-1.835-3.173.4.4,0,0,0-.5-.077l-1.426.824a6.491,6.491,0,0,0-2.04-1.178V11.737a.4.4,0,0,0-.315-.393,8.341,8.341,0,0,0-3.66,0,.4.4,0,0,0-.315.393v1.647a6.491,6.491,0,0,0-2.04,1.178L21.8,13.738a.4.4,0,0,0-.5.077,8.3,8.3,0,0,0-1.835,3.173.407.407,0,0,0,.182.47l1.426.824a6.485,6.485,0,0,0,0,2.355l-1.426.824a.4.4,0,0,0-.182.47A8.338,8.338,0,0,0,21.306,25.1a.4.4,0,0,0,.5.077l1.426-.824a6.491,6.491,0,0,0,2.04,1.178v1.647a.4.4,0,0,0,.315.393,8.341,8.341,0,0,0,3.66,0,.4.4,0,0,0,.315-.393V25.535a6.491,6.491,0,0,0,2.04-1.178l1.426.824a.4.4,0,0,0,.5-.077,8.3,8.3,0,0,0,1.835-3.173.407.407,0,0,0-.182-.47l-1.426-.824Zm-6.33,1.5A2.681,2.681,0,1,1,30.1,19.46,2.684,2.684,0,0,1,27.421,22.141ZM12.383,14.153A7.076,7.076,0,1,0,5.307,7.076,7.076,7.076,0,0,0,12.383,14.153ZM23.507,26.674c-.127-.066-.254-.144-.376-.216l-.437.254a2.169,2.169,0,0,1-2.681-.4,10.081,10.081,0,0,1-2.222-3.848,2.162,2.162,0,0,1,.99-2.526l.437-.254q-.008-.216,0-.431L18.78,19a2.16,2.16,0,0,1-.99-2.526c.05-.16.122-.321.177-.481-.21-.017-.415-.066-.63-.066h-.923a9.623,9.623,0,0,1-8.06,0H7.43A7.432,7.432,0,0,0,0,23.352v2.3a2.654,2.654,0,0,0,2.654,2.654h19.46a2.651,2.651,0,0,0,1.5-.47,2.153,2.153,0,0,1-.111-.652Z" transform="translate(1 1)" fill="none" stroke="#000" stroke-width="2"/>
</svg>
