<svg xmlns="http://www.w3.org/2000/svg" width="22.695" height="22.693" viewBox="0 0 22.695 22.693">
  <path id="_002-speech_bubble" data-name="002-speech bubble" d="M.886,22.716A.886.886,0,0,1,0,21.83V11.477A11.352,11.352,0,1,1,11.294,22.716a11.209,11.209,0,0,1-5.068-1.191,3.927,3.927,0,0,0-4.539.758l-.173.173a.886.886,0,0,1-.627.26Zm3.6-3.375a5.641,5.641,0,0,1,2.532.6,9.455,9.455,0,0,0,4.284,1c8.473.012,12.816-10.338,6.848-16.325A9.6,9.6,0,0,0,1.773,11.464s0,.006,0,.009V20.03A5.711,5.711,0,0,1,4.488,19.341Zm4.2-7.971a1.108,1.108,0,1,1-1.108-1.108A1.108,1.108,0,0,1,8.687,11.37Zm2.7-1.108A1.108,1.108,0,1,0,12.5,11.37,1.108,1.108,0,0,0,11.391,10.262Zm3.812,0A1.108,1.108,0,1,0,16.31,11.37,1.108,1.108,0,0,0,15.2,10.262Z" transform="translate(0 -0.023)" opacity="0.5"/>
</svg>
